<svg width="101" height="118" viewBox="0 0 101 118" fill="none" xmlns="http://www.w3.org/2000/svg">
<line x1="2.77429" y1="105.577" x2="2.77429" y2="18.4991" stroke="white" stroke-width="5"/>
<line x1="34.5" y1="115.501" x2="34.5" y2="31" stroke="white" stroke-width="5"/>
<line x1="34.6773" y1="115.361" x2="1.67731" y2="103.861" stroke="white" stroke-width="5"/>
<line x1="36.1544" y1="31.4277" x2="4.20063" y2="20.294" stroke="white" stroke-width="5"/>
<line x1="88.6773" y1="13.8608" x2="55.6773" y2="2.36076" stroke="white" stroke-width="5"/>
<line x1="98.8466" y1="32.27" x2="87.3466" y2="12.77" stroke="white" stroke-width="5"/>
<line x1="98.8466" y1="74.77" x2="87.3466" y2="55.27" stroke="white" stroke-width="5"/>
<line x1="87.2168" y1="55.4699" x2="98.7212" y2="29.9718" stroke="white" stroke-width="5"/>
<line x1="55.1293" y1="87.9446" x2="66.2385" y2="62.9929" stroke="white" stroke-width="5"/>
<line x1="55.2161" y1="45.7605" x2="66.2478" y2="20.983" stroke="white" stroke-width="5"/>
<line x1="87.221" y1="97.9722" x2="98.721" y2="72.4722" stroke="white" stroke-width="5"/>
<line x1="87.205" y1="97.7827" x2="54.65" y2="86.4394" stroke="white" stroke-width="5"/>
<line x1="98.6277" y1="73.5053" x2="66.2271" y2="62.2159" stroke="white" stroke-width="5"/>
<line x1="87.1773" y1="55.3608" x2="54.1773" y2="43.8608" stroke="white" stroke-width="5"/>
<line x1="98.6544" y1="31.4277" x2="66.7006" y2="20.294" stroke="white" stroke-width="5"/>
<line x1="87.7662" y1="13.299" x2="33.3144" y2="31.4444" stroke="white" stroke-width="5"/>
<line x1="57.2769" y1="2.37622" x2="1.7769" y2="20.5216" stroke="white" stroke-width="5"/>
<line x1="87.7662" y1="55.299" x2="34.8145" y2="72.9445" stroke="white" stroke-width="5"/>
<line x1="58.7657" y1="86.2971" x2="34.6001" y2="94.35" stroke="white" stroke-width="5"/>
<line x1="58.7622" y1="44.2858" x2="34.8186" y2="52.2647" stroke="white" stroke-width="5"/>
<line x1="88.7713" y1="97.3781" x2="33.2713" y2="115.378" stroke="white" stroke-width="5"/>
</svg>
