<svg width="100" height="100" viewBox="0 0 100 100" fill="none" xmlns="http://www.w3.org/2000/svg">
<rect width="100" height="100" rx="5" fill="white"/>
<line x1="16.2419" y1="83.9038" x2="16.2419" y2="22.9495" stroke="#2B2C28" stroke-width="3.5"/>
<line x1="38.45" y1="90.8511" x2="38.45" y2="31.7" stroke="#2B2C28" stroke-width="3.5"/>
<line x1="38.5741" y1="90.7526" x2="15.4741" y2="82.7026" stroke="#2B2C28" stroke-width="3.5"/>
<line x1="39.608" y1="31.9992" x2="17.2404" y2="24.2056" stroke="#2B2C28" stroke-width="3.5"/>
<line x1="76.3741" y1="19.7023" x2="53.2741" y2="11.6523" stroke="#2B2C28" stroke-width="3.5"/>
<line x1="83.4926" y1="32.5892" x2="75.4426" y2="18.9392" stroke="#2B2C28" stroke-width="3.5"/>
<line x1="83.4926" y1="62.3392" x2="75.4426" y2="48.6892" stroke="#2B2C28" stroke-width="3.5"/>
<line x1="75.3517" y1="48.8286" x2="83.4048" y2="30.98" stroke="#2B2C28" stroke-width="3.5"/>
<line x1="52.8906" y1="71.5612" x2="60.667" y2="54.095" stroke="#2B2C28" stroke-width="3.5"/>
<line x1="52.9513" y1="42.0324" x2="60.6735" y2="24.6881" stroke="#2B2C28" stroke-width="3.5"/>
<line x1="75.3547" y1="78.5804" x2="83.4047" y2="60.7304" stroke="#2B2C28" stroke-width="3.5"/>
<line x1="75.3435" y1="78.4475" x2="52.555" y2="70.5072" stroke="#2B2C28" stroke-width="3.5"/>
<line x1="83.3394" y1="61.4538" x2="60.6589" y2="53.5512" stroke="#2B2C28" stroke-width="3.5"/>
<line x1="75.3241" y1="48.7526" x2="52.2241" y2="40.7026" stroke="#2B2C28" stroke-width="3.5"/>
<line x1="83.358" y1="31.9992" x2="60.9904" y2="24.2056" stroke="#2B2C28" stroke-width="3.5"/>
<line x1="75.7364" y1="19.3092" x2="37.6201" y2="32.0109" stroke="#2B2C28" stroke-width="3.5"/>
<line x1="54.3938" y1="11.6634" x2="15.5438" y2="24.3651" stroke="#2B2C28" stroke-width="3.5"/>
<line x1="75.7364" y1="48.7096" x2="38.6701" y2="61.0614" stroke="#2B2C28" stroke-width="3.5"/>
<line x1="55.4361" y1="70.4083" x2="38.5201" y2="76.0453" stroke="#2B2C28" stroke-width="3.5"/>
<line x1="55.4335" y1="41.0001" x2="38.673" y2="46.5853" stroke="#2B2C28" stroke-width="3.5"/>
<line x1="76.4399" y1="78.1646" x2="37.5899" y2="90.7646" stroke="#2B2C28" stroke-width="3.5"/>
</svg>
