<svg width="45" height="40" viewBox="0 0 45 40" fill="none" xmlns="http://www.w3.org/2000/svg">
<path d="M27.2784 7.91806V7.97363L17.149 8.02092L17.46 7.49645L18.0254 6.96526L26.1669 6.92815L28.4583 0L16.2214 0.0590217L17.9742 6.79682C16.7071 5.53562 13.5924 2.85634 10.7603 3.78378L11.0676 4.53915C13.4767 3.74495 16.4225 6.44096 17.4564 7.49645C15.7321 8.0613 13.4957 8.47273 12.1698 7.41896L11.5705 8.02592C12.3578 8.65324 13.3555 8.86897 14.4063 8.86569C15.0209 8.86569 15.6544 8.77629 16.2652 8.65652C10.51 12.1687 6.49249 19.9687 6.53054 25.8784C6.57423 33.7206 13.7691 40.0418 22.58 39.9997C31.4043 39.9625 38.5137 33.5704 38.4702 25.725C38.4283 19.4021 33.7277 10.9346 27.2784 7.91806ZM27.0849 30.4495C26.2389 31.1172 25.1804 31.5388 23.9322 31.7276L23.9474 33.9853L21.2178 33.9988L21.2027 31.7428C19.9696 31.5573 18.862 31.0988 17.8982 30.3872C16.743 29.5088 16.1493 28.4904 16.119 27.3607L16.1703 26.7419L18.8222 26.7317L18.8337 26.9678C18.8527 27.9035 19.1713 28.6033 19.8087 29.1007C20.4461 29.5963 21.3565 29.8458 22.5287 29.8458C23.6991 29.8341 24.6153 29.5761 25.2622 29.0753C25.8996 28.566 26.2069 27.8781 26.203 26.9795C26.1991 26.241 25.9033 25.6643 25.2888 25.2294C24.6514 24.7843 23.5474 24.3981 21.9997 24.0743C20.2849 23.7185 18.9647 23.1722 18.0978 22.454C17.2158 21.7155 16.7566 20.7644 16.7491 19.6399C16.7415 18.3533 17.301 17.2811 18.4203 16.4583C19.1829 15.8969 20.0857 15.5275 21.1064 15.3589L21.0949 13.3929L23.8225 13.3795L23.834 15.2815C25.0537 15.4281 26.078 15.8059 26.8785 16.3977C27.9502 17.1919 28.542 18.2997 28.6274 19.6856L28.6425 19.9267L25.9679 19.9385L25.9376 19.7412C25.8087 18.8763 25.4823 18.2287 24.9531 17.8173C24.4353 17.4126 23.6707 17.2002 22.6788 17.2086C21.6488 17.2104 20.8198 17.4345 20.2566 17.8579C19.6932 18.276 19.4258 18.8426 19.4295 19.6013C19.4295 20.2572 19.6895 20.7698 20.2073 21.1558C20.7326 21.5504 21.6735 21.8928 23.0013 22.1692C24.9455 22.5672 26.4176 23.164 27.3945 23.9413C28.3715 24.7303 28.8759 25.7337 28.8798 26.9256C28.8926 28.3487 28.2913 29.534 27.0849 30.4495Z" fill="white" fill-opacity="0.3"/>
</svg>
