<svg width="51" height="27" viewBox="0 0 51 27" fill="none" xmlns="http://www.w3.org/2000/svg">
<path d="M13.5004 0.819336C10.1219 0.819336 7.37305 3.62459 7.37305 7.07203C7.37305 10.5195 10.1219 13.3247 13.5004 13.3247C16.879 13.3247 19.6278 10.5195 19.6278 7.07203C19.6278 3.62459 16.879 0.819336 13.5004 0.819336ZM13.5004 11.7569C10.985 11.7569 8.93935 9.65487 8.93935 7.07047C8.93935 4.48606 10.985 2.38408 13.5004 2.38408C16.0159 2.38408 18.0615 4.48606 18.0615 7.07047C18.0615 9.65487 16.0159 11.7569 13.5004 11.7569Z" fill="white" fill-opacity="0.3"/>
<path d="M19.4222 14.8343L18.9194 14.6792L13.5 18.8503L8.08058 14.6792L7.57779 14.8343C-0.00783171 17.1555 3.32549e-08 25.056 3.32549e-08 25.1343L0.0125305 26.1822H26.9875L27 25.1343C27 25.056 27.0078 17.1555 19.4222 14.8343ZM1.59293 24.6158C1.7339 23.0041 2.58597 18.1564 7.77045 16.4178L12.5445 20.0924L13.5 20.827L14.4554 20.0924L19.2295 16.4178C24.4266 18.1595 25.2708 23.026 25.4071 24.6158H1.59293Z" fill="white" fill-opacity="0.3"/>
<path d="M50.1221 0H33.6211V1.56631H50.1221V0Z" fill="white" fill-opacity="0.3"/>
<path d="M50.1221 6.35791H33.6211V7.92422H50.1221V6.35791Z" fill="white" fill-opacity="0.3"/>
<path d="M50.1221 12.7168H33.6211V14.2831H50.1221V12.7168Z" fill="white" fill-opacity="0.3"/>
<path d="M50.1221 19.0762H33.6211V20.6425H50.1221V19.0762Z" fill="white" fill-opacity="0.3"/>
<path d="M50.1221 25.4336H33.6211V26.9999H50.1221V25.4336Z" fill="white" fill-opacity="0.3"/>
</svg>
