<svg width="45" height="38" viewBox="0 0 45 38" fill="none" xmlns="http://www.w3.org/2000/svg">
<path d="M28.1411 10.1808C25.0307 8.30752 20.0062 8.30752 16.9142 10.1808C13.8222 12.0542 13.8406 15.0996 16.951 16.9729C20.0614 18.8462 25.086 18.8462 28.178 16.9729C31.27 15.0899 31.2516 12.0542 28.1411 10.1808ZM26.7148 13.1301C26.4479 13.2166 26.181 13.3127 25.9142 13.3991C25.7485 13.4472 25.6473 13.4568 25.5737 13.4184C25.5369 13.3895 25.5001 13.3511 25.4633 13.2935C25.2884 12.9957 25.0215 12.7363 24.6626 12.5249C24.6166 12.4961 24.5614 12.4673 24.5062 12.4385C24.3866 12.3712 24.2761 12.3232 24.1289 12.2847C23.6136 12.1599 23.1535 12.3616 23.2179 12.6978C23.2455 12.8708 23.3375 13.0245 23.4479 13.1878C23.632 13.4568 23.8344 13.7258 23.9633 14.014C24.3958 14.917 23.4571 15.8105 21.9479 15.8969C21.405 15.9257 20.8897 15.8585 20.4111 15.6952C20.1995 15.6279 20.043 15.6279 19.8866 15.7432C19.7302 15.8489 19.5553 15.945 19.3897 16.041C19.2424 16.1275 19.086 16.1371 18.9388 16.0506C18.8283 15.993 18.7271 15.9257 18.6167 15.8681C18.5431 15.8201 18.4694 15.7816 18.3958 15.7336C18.2394 15.6375 18.2578 15.5415 18.405 15.4454C18.5246 15.3685 18.6443 15.3013 18.7547 15.2244C19.0216 15.0611 19.0216 15.0515 18.8007 14.869C18.5246 14.6384 18.2762 14.3983 18.1197 14.1293C18.0001 13.9179 18.0277 13.8699 18.3498 13.7546C18.5891 13.6777 18.8191 13.5913 19.0584 13.5144C19.2332 13.4568 19.3345 13.4472 19.4081 13.4856C19.4541 13.5144 19.4817 13.5528 19.5185 13.6201C19.6749 13.9275 19.9418 14.1965 20.2639 14.4559C20.3191 14.5039 20.3835 14.5424 20.4387 14.5808C20.6136 14.6865 20.816 14.7633 21.0461 14.821C21.6443 14.9651 22.178 14.7153 22.1228 14.3214C22.1044 14.1869 22.04 14.0716 21.9571 13.9467C21.7547 13.6297 21.4878 13.3319 21.3498 12.9957C21.1289 12.4577 21.2301 11.9677 21.9387 11.5834C22.7485 11.1511 23.6504 11.1223 24.6074 11.3913C25.0031 11.5066 24.9939 11.5066 25.2976 11.3241C25.3988 11.2568 25.5001 11.1992 25.6013 11.1415C25.8313 11.007 25.9142 11.007 26.1442 11.1415C26.2178 11.18 26.2823 11.228 26.3559 11.2664C26.8436 11.5546 26.8436 11.5546 26.3651 11.8524C26.0246 12.0542 26.0246 12.0542 26.3099 12.2944C26.5307 12.4769 26.7056 12.669 26.8344 12.8804C26.9356 12.986 26.8988 13.0725 26.7148 13.1301ZM32.2914 19.4514C31.4356 19.9702 30.046 19.9702 29.181 19.4514C28.3252 18.9327 28.316 18.0873 29.1718 17.5685C30.0276 17.0497 31.4172 17.0497 32.2822 17.5685C33.1473 18.0873 33.1565 18.9327 32.2914 19.4514ZM15.9112 9.57562C15.0553 10.0944 13.6658 10.0944 12.8008 9.57562C11.9357 9.05685 11.9357 8.21145 12.7916 7.69268C13.6474 7.17391 15.0369 7.17391 15.902 7.69268C16.7578 8.21145 16.767 9.05685 15.9112 9.57562ZM43.9325 15.4262L19.4081 0.641257C17.9909 -0.213752 15.6903 -0.213752 14.2823 0.641257L1.13212 8.61493C-0.27585 9.46994 -0.266648 10.8629 1.15052 11.7179L25.6749 26.5029C27.0921 27.3579 29.3927 27.3579 30.8006 26.5029L43.9417 18.5292C45.3588 17.6742 45.3496 16.2812 43.9325 15.4262ZM31.0675 23.6881C30.9111 23.5344 30.727 23.3903 30.5062 23.2558C29.0706 22.3911 26.7424 22.3911 25.316 23.2558C25.2056 23.323 25.1136 23.3903 25.0123 23.4671L5.97258 11.9869C6.15662 11.9101 6.33147 11.8236 6.49711 11.7276C7.92348 10.8629 7.91428 9.46034 6.47871 8.59572C6.32227 8.49965 6.15662 8.41319 5.98178 8.34594L13.8314 3.58095C13.9511 3.68662 14.0891 3.78269 14.2455 3.87876C15.6811 4.74338 18.0093 4.74338 19.4357 3.87876C19.6013 3.78269 19.7394 3.67702 19.8682 3.56174L38.9724 15.0707C38.7147 15.1668 38.4846 15.2725 38.2638 15.407C36.8374 16.2716 36.8374 17.6838 38.2822 18.5484C38.503 18.6829 38.7515 18.7886 39.0092 18.8846L31.0675 23.6881ZM0.506354 14.6769C1.13212 14.3406 2.09837 14.3886 2.69652 14.7537L28.3344 30.2015L42.1932 21.7859C42.7914 21.4209 43.776 21.4209 44.3834 21.7859C44.9907 22.151 44.9907 22.7466 44.3926 23.1117L29.6595 32.046C28.9418 32.4879 27.7638 32.4879 27.0369 32.046L26.5215 31.7386L26.1626 31.5176L0.460342 16.0314C-0.165421 15.6567 -0.156219 15.0323 0.506354 14.6769ZM44.411 27.9439L29.6779 36.8783C28.9602 37.3202 27.7823 37.3202 27.0553 36.8783L26.5491 36.5708L26.181 36.3499L0.478746 20.8637C-0.147016 20.489 -0.128612 19.8645 0.533961 19.5091C1.15052 19.1729 2.12598 19.2209 2.72413 19.5859L28.3528 35.0337L42.2116 26.6278C42.819 26.2627 43.7944 26.2627 44.4018 26.6278C45.0091 26.9832 45.0183 27.5788 44.411 27.9439Z" fill="white" fill-opacity="0.3"/>
</svg>
