<svg width="36" height="27" viewBox="0 0 36 27" fill="none" xmlns="http://www.w3.org/2000/svg">
<path d="M35.9285 12.7924C34.5171 9.14144 32.0668 5.98411 28.8805 3.71061C25.6942 1.43711 21.9115 0.147092 18 0C14.0885 0.147092 10.3058 1.43711 7.11953 3.71061C3.93322 5.98411 1.48292 9.14144 0.0714915 12.7924C-0.0238305 13.056 -0.0238305 13.3447 0.0714915 13.6084C1.48292 17.2593 3.93322 20.4166 7.11953 22.6901C10.3058 24.9636 14.0885 26.2537 18 26.4007C21.9115 26.2537 25.6942 24.9636 28.8805 22.6901C32.0668 20.4166 34.5171 17.2593 35.9285 13.6084C36.0238 13.3447 36.0238 13.056 35.9285 12.7924ZM18 24.0007C11.6398 24.0007 4.91963 19.2845 2.48356 13.2004C4.91963 7.1162 11.6398 2.40007 18 2.40007C24.3602 2.40007 31.0804 7.1162 33.5164 13.2004C31.0804 19.2845 24.3602 24.0007 18 24.0007Z" fill="white" fill-opacity="0.3"/>
<path d="M18.001 6C16.5769 6 15.1848 6.42229 14.0008 7.21345C12.8167 8.00462 11.8938 9.12914 11.3489 10.4448C10.8039 11.7605 10.6613 13.2082 10.9391 14.6049C11.217 16.0016 11.9027 17.2846 12.9097 18.2915C13.9166 19.2985 15.1996 19.9842 16.5963 20.2621C17.993 20.5399 19.4407 20.3973 20.7564 19.8523C22.0721 19.3074 23.1966 18.3845 23.9877 17.2004C24.7789 16.0164 25.2012 14.6243 25.2012 13.2002C25.2012 11.2906 24.4426 9.45919 23.0923 8.10889C21.742 6.75859 19.9106 6 18.001 6ZM18.001 18.0003C17.0516 18.0003 16.1236 17.7188 15.3342 17.1914C14.5448 16.6639 13.9296 15.9142 13.5662 15.0371C13.2029 14.16 13.1079 13.1949 13.2931 12.2637C13.4783 11.3326 13.9355 10.4773 14.6068 9.806C15.2781 9.13468 16.1334 8.67752 17.0645 8.4923C17.9957 8.30709 18.9608 8.40215 19.8379 8.76546C20.715 9.12877 21.4647 9.74401 21.9922 10.5334C22.5196 11.3228 22.8011 12.2508 22.8011 13.2002C22.8011 14.4733 22.2954 15.6942 21.3952 16.5944C20.495 17.4946 19.2741 18.0003 18.001 18.0003Z" fill="white" fill-opacity="0.3"/>
</svg>
