<svg width="550" height="37" viewBox="0 0 550 37" fill="none" xmlns="http://www.w3.org/2000/svg">
<path d="M289.5 18.5C289.5 28.4051 280.807 36.5 270 36.5C259.193 36.5 250.5 28.4051 250.5 18.5C250.5 8.59486 259.193 0.5 270 0.5C280.807 0.5 289.5 8.59486 289.5 18.5Z" fill="#131515" stroke="#4B4B4B"/>
<g filter="url(#filter0_b_318_140)">
<rect x="290" y="18" width="260" height="1" rx="0.5" fill="#4B4B4B"/>
</g>
<g filter="url(#filter1_b_318_140)">
<rect y="18" width="250" height="1" rx="0.5" fill="#4B4B4B"/>
</g>
<path d="M264.288 24.112C263.253 24.112 262.309 23.872 261.456 23.392C260.603 22.9013 259.925 22.224 259.424 21.36C258.933 20.4853 258.688 19.504 258.688 18.416C258.688 17.328 258.933 16.352 259.424 15.488C259.925 14.6133 260.603 13.936 261.456 13.456C262.309 12.9653 263.253 12.72 264.288 12.72C265.333 12.72 266.283 12.9653 267.136 13.456C267.989 13.936 268.661 14.608 269.152 15.472C269.643 16.336 269.888 17.3173 269.888 18.416C269.888 19.5147 269.643 20.496 269.152 21.36C268.661 22.224 267.989 22.9013 267.136 23.392C266.283 23.872 265.333 24.112 264.288 24.112ZM264.288 22.848C265.067 22.848 265.765 22.6667 266.384 22.304C267.013 21.9413 267.504 21.424 267.856 20.752C268.219 20.08 268.4 19.3013 268.4 18.416C268.4 17.52 268.219 16.7413 267.856 16.08C267.504 15.408 267.019 14.8907 266.4 14.528C265.781 14.1653 265.077 13.984 264.288 13.984C263.499 13.984 262.795 14.1653 262.176 14.528C261.557 14.8907 261.067 15.408 260.704 16.08C260.352 16.7413 260.176 17.52 260.176 18.416C260.176 19.3013 260.352 20.08 260.704 20.752C261.067 21.424 261.557 21.9413 262.176 22.304C262.805 22.6667 263.509 22.848 264.288 22.848ZM273.394 12.848V19.904C273.394 20.896 273.634 21.632 274.114 22.112C274.605 22.592 275.282 22.832 276.146 22.832C276.999 22.832 277.666 22.592 278.146 22.112C278.637 21.632 278.882 20.896 278.882 19.904V12.848H280.338V19.888C280.338 20.816 280.151 21.6 279.778 22.24C279.405 22.8693 278.898 23.3387 278.258 23.648C277.629 23.9573 276.919 24.112 276.13 24.112C275.341 24.112 274.626 23.9573 273.986 23.648C273.357 23.3387 272.855 22.8693 272.482 22.24C272.119 21.6 271.938 20.816 271.938 19.888V12.848H273.394Z" fill="#4B4B4B"/>
<defs>
<filter id="filter0_b_318_140" x="286" y="14" width="268" height="9" filterUnits="userSpaceOnUse" color-interpolation-filters="sRGB">
<feFlood flood-opacity="0" result="BackgroundImageFix"/>
<feGaussianBlur in="BackgroundImage" stdDeviation="2"/>
<feComposite in2="SourceAlpha" operator="in" result="effect1_backgroundBlur_318_140"/>
<feBlend mode="normal" in="SourceGraphic" in2="effect1_backgroundBlur_318_140" result="shape"/>
</filter>
<filter id="filter1_b_318_140" x="-4" y="14" width="258" height="9" filterUnits="userSpaceOnUse" color-interpolation-filters="sRGB">
<feFlood flood-opacity="0" result="BackgroundImageFix"/>
<feGaussianBlur in="BackgroundImage" stdDeviation="2"/>
<feComposite in2="SourceAlpha" operator="in" result="effect1_backgroundBlur_318_140"/>
<feBlend mode="normal" in="SourceGraphic" in2="effect1_backgroundBlur_318_140" result="shape"/>
</filter>
</defs>
</svg>
