<svg width="30" height="30" viewBox="0 0 30 30" fill="none" xmlns="http://www.w3.org/2000/svg">
<path d="M14.5935 24.9035L8.34342 18.6512L7.76758 19.2265L15.0003 26.459L22.2326 19.2265L21.6578 18.6512L15.406 24.9035L15.406 4.33905H14.5935L14.5935 24.9035Z" fill="#F45959"/>
<path d="M0 14.9997C0 23.2711 6.72903 30 15.0005 30C23.2704 30 30 23.2711 30 14.9997C30 6.72833 23.2704 0 15.0005 0C6.72903 0 0 6.72833 0 14.9997ZM29.2904 14.9997C29.2904 22.8796 22.88 29.2909 15.0004 29.2909C7.11922 29.2909 0.708262 22.8796 0.708262 14.9997C0.708262 7.12024 7.11922 0.708456 14.9998 0.708456C22.8795 0.708456 29.2904 7.12024 29.2904 14.9997Z" fill="#F45959"/>
</svg>
