<svg width="30" height="30" viewBox="0 0 30 30" fill="none" xmlns="http://www.w3.org/2000/svg">
<path d="M15.4065 5.09651L21.6566 11.3488L22.2324 10.7735L14.9997 3.54102L7.76742 10.7735L8.34218 11.3488L14.594 5.09651L14.594 25.6609H15.4065L15.4065 5.09651Z" fill="#7DE2D1"/>
<path d="M30 15.0003C30 6.72894 23.271 0 14.9995 0C6.72964 0 0 6.72894 0 15.0003C0 23.2717 6.72964 30 14.9995 30C23.271 30 30 23.2717 30 15.0003ZM0.709644 15.0003C0.709644 7.12039 7.11999 0.709071 14.9996 0.709071C22.8808 0.709071 29.2917 7.12039 29.2917 15.0003C29.2917 22.8798 22.8808 29.2915 15.0002 29.2915C7.12045 29.2915 0.709644 22.8798 0.709644 15.0003Z" fill="#7DE2D1"/>
</svg>
